Coordinates
version=1
nRows=4
nColumns=63
inDegrees=yes

Units are S.I. units (second, meters, Newtons, ...)
If the header above contains a line with 'inDegrees', this indicates whether rotational values are in degrees (yes) or radians (no).

endheader
time	pelvis_tilt	pelvis_list	pelvis_rotation	pelvis_tx	pelvis_ty	pelvis_tz	hip_flexion_r	hip_adduction_r	hip_rotation_r	knee_angle_r	knee_angle_r_beta	ankle_angle_r	subtalar_angle_r	mtp_angle_r	hip_flexion_l	hip_adduction_l	hip_rotation_l	knee_angle_l	knee_angle_l_beta	ankle_angle_l	subtalar_angle_l	mtp_angle_l	L5_S1_Flex_Ext	L5_S1_Lat_Bending	L5_S1_axial_rotation	L4_L5_Flex_Ext	L4_L5_Lat_Bending	L4_L5_axial_rotation	L3_L4_Flex_Ext	L3_L4_Lat_Bending	L3_L4_axial_rotation	L2_L3_Flex_Ext	L2_L3_Lat_Bending	L2_L3_axial_rotation	L1_L2_Flex_Ext	L1_L2_Lat_Bending	L1_L2_axial_rotation	L1_T12_Flex_Ext	L1_T12_Lat_Bending	L1_T12_axial_rotation	Abs_r3	Abs_r2	Abs_r1	Abs_t1	Abs_t2	neck_flexion	neck_bending	neck_rotation	arm_flex_r	arm_add_r	arm_rot_r	elbow_flex_r	pro_sup_r	wrist_flex_r	wrist_dev_r	arm_flex_l	arm_add_l	arm_rot_l	elbow_flex_l	pro_sup_l	wrist_flex_l	wrist_dev_l
      7.50000000	    -53.91605837	     -2.08068548	     -5.82140499	     -0.25069626	      1.01939254	      0.01686484	    125.15985739	     -1.98124768	      0.01470357	    118.00074736	      2.05950156	     19.44965413	      0.91663795	      0.00000000	     87.48709867	    -10.34257455	      1.56414893	     49.55156971	      0.86483804	      8.12856171	      4.86426042	      0.00000000	     -0.07477316	      0.39375618	      0.89245516	     -0.13886124	      0.52369571	      0.94823361	     -0.12284482	      0.95737877	      0.94823361	     -0.08545824	      0.95737877	      0.78089827	     -0.06943436	      0.80294759	      0.72511982	     -0.04272538	      0.60992832	      0.66934137	     -0.53409721	      4.45424862	      4.96356787	      0.00000000	      0.00000000	     -0.00000000	      0.00000000	      0.00000000	     77.65544876	    -13.23728838	     35.56631726	     26.73216034	     29.76395520	      0.00000000	      5.00000014	     69.86010426	    -17.98784178	     25.74655234	     37.84217881	     41.47686714	      0.00000000	      5.00000014
      7.50800000	    -53.94217711	     -2.16041919	     -5.67007388	     -0.25071443	      1.01971368	      0.01696404	    125.96869906	     -1.98124614	     -0.13907701	    116.90755413	      2.04042174	     19.64590614	      0.57773072	      0.00000000	     87.28546482	    -10.26139973	      1.51740059	     50.90306088	      0.88842601	      7.99214306	      4.76108736	      0.00000000	     -0.07434017	      0.40549551	      0.85784441	     -0.13805713	      0.53930903	      0.91145968	     -0.12213346	      0.98592178	      0.91145968	     -0.08496338	      0.98592178	      0.75061386	     -0.06903228	      0.82688644	      0.69699858	     -0.04247797	      0.62811254	      0.64338331	     -0.53100440	      4.58704628	      4.77107324	      0.00000000	      0.00000000	     -0.00000000	      0.00000000	      0.00000000	     77.66755507	    -13.19883612	     35.64588064	     26.79096976	     29.80971997	      0.00000000	      5.00000014	     69.88308467	    -18.01212421	     25.69643085	     37.66135040	     41.47487537	      0.00000000	      5.00000014
      7.51700000	    -53.97945646	     -2.49860726	     -5.73416584	     -0.25087756	      1.02023651	      0.01722006	    126.40543182	     -1.88919066	     -0.77893951	    115.30081598	      2.01237887	     19.63265794	     -0.51963914	      0.00000000	     87.43285717	    -10.47426339	      1.61128749	     52.76291591	      0.92088661	      7.32975923	      4.12454807	      0.00000000	     -0.07766119	      0.44902569	      0.87693951	     -0.14422460	      0.59720416	      0.93174823	     -0.12758957	      1.09176106	      0.93174823	     -0.08875898	      1.09176106	      0.76732207	     -0.07211618	      0.91565318	      0.71251335	     -0.04437561	      0.69554079	      0.65770463	     -0.55472613	      5.07946838	      4.87727449	      0.00000000	      0.00000000	     -0.00000000	      0.00000000	      0.00000000	     77.76766596	    -13.29622212	     35.85528674	     26.71303433	     29.86419420	      0.00000000	      5.00000014	     69.92783202	    -17.85419121	     25.56166511	     37.37330945	     41.45457785	      0.00000000	      5.00000014
      7.52500000	    -54.00121470	     -2.50973203	     -5.32293981	     -0.25101652	      1.02042367	      0.01697833	    126.76382937	     -2.02039430	     -0.72029782	    113.58186063	      1.98237744	     19.74319531	     -0.77971590	      0.00000000	     87.66692145	    -10.12572990	      1.64968585	     54.88336013	      0.95789534	      7.18345015	      3.86783909	      0.00000000	     -0.07427797	      0.44893106	      0.80497581	     -0.13794162	      0.59707832	      0.85528679	     -0.12203128	      1.09153099	      0.85528679	     -0.08489229	      1.09153099	      0.70435383	     -0.06897452	      0.91546023	      0.65404284	     -0.04244243	      0.69539422	      0.60373186	     -0.53056012	      5.07839798	      4.47703394	      0.00000000	      0.00000000	     -0.00000000	      0.00000000	      0.00000000	     77.71303166	    -13.30767875	     35.89870923	     26.81324749	     29.91699108	      0.00000000	      5.00000014	     69.98471615	    -17.81728260	     25.47684610	     37.28931557	     41.45062833	      0.00000000	      5.00000014
